<svg viewBox="0 0 376 303" fill="none" xmlns="http://www.w3.org/2000/svg">
<g clip-path="url(#clip0_128_270)">
<path d="M369.08 213.31C362.804 204.041 352.528 193.108 338.538 180.817C309.813 155.577 268.621 127.397 222.552 101.466C211.025 94.9763 199.536 88.8236 188.217 83.0633C187.894 83.3053 187.568 83.5458 187.238 83.7832C198.701 89.607 210.341 95.8373 222.023 102.412C268.029 128.307 309.156 156.441 337.825 181.634C351.745 193.865 361.96 204.728 368.184 213.921C374.531 223.295 376.407 230.446 373.759 235.178C371.497 239.222 366.01 241.359 357.419 241.553C357.125 241.098 356.821 240.637 356.507 240.172C350.231 230.903 339.955 219.97 325.967 207.679C297.242 182.439 256.05 154.257 209.981 128.328C191.434 117.888 172.988 108.316 155.191 99.8584C154.705 100.038 154.229 100.212 153.762 100.381C171.834 108.94 190.59 118.658 209.452 129.275C255.458 155.171 296.583 183.305 325.254 208.496C339.174 220.727 349.388 231.59 355.613 240.783C355.791 241.047 355.965 241.308 356.137 241.568H356.12C355.048 241.568 353.932 241.54 352.77 241.483C341.706 240.945 327.141 237.86 309.482 232.316C308.723 232.077 307.957 231.835 307.192 231.588C278.675 207.16 238.98 180.222 194.797 155.354C149.777 130.014 105.359 109.783 69.3497 98.1954C68.1914 97.2025 67.0517 96.2127 65.932 95.2292C52.0123 82.9982 41.7979 72.1355 35.5733 62.9421C35.3955 62.6783 35.2207 62.4177 35.0491 62.1571H35.0661C36.1378 62.1571 37.2559 62.185 38.4157 62.2424C49.4807 62.7807 64.0453 65.8649 81.7044 71.4094C98.0274 76.5336 116.163 83.4993 135.353 91.9589C135.365 91.5928 135.385 91.2065 135.415 90.8C116.324 82.3978 98.281 75.4756 82.0276 70.3716C64.2804 64.7991 49.6245 61.6994 38.4683 61.1565C37.3038 61.0991 36.1826 61.0711 35.1048 61.0711C34.8511 61.0711 34.5991 61.0711 34.3501 61.0758C28.9931 52.6146 27.5286 46.0958 29.9968 41.6837C32.6428 36.952 39.707 34.8313 50.987 35.3805C62.0519 35.9188 76.6165 39.0029 94.2756 44.5475C110.681 49.698 128.916 56.7071 148.213 65.2241C148.493 64.9542 148.781 64.6858 149.073 64.4174C129.58 55.798 111.16 48.7098 94.5989 43.5112C76.8516 37.9387 62.1958 34.839 51.0395 34.2961C39.3127 33.7252 31.9159 36.032 29.0519 41.1531C26.4322 45.8367 27.7915 52.5417 33.0913 61.1068C24.4558 61.4109 18.8792 63.7271 16.4807 68.0135C13.847 72.7219 15.2342 79.4704 20.602 88.1006C10.4232 87.9951 3.93419 90.3206 1.29438 95.0383C-1.56968 100.159 0.323197 107.694 6.91887 117.437C13.1944 126.706 23.4707 137.639 37.46 149.93C66.1856 175.17 107.377 203.35 153.447 229.281C199.516 255.212 244.957 275.794 281.4 287.236C299.147 292.808 313.803 295.908 324.959 296.451C326.123 296.508 327.245 296.536 328.322 296.536C338.107 296.536 344.367 294.206 346.947 289.594C349.58 284.885 348.193 278.137 342.825 269.507C353.006 269.612 359.493 267.287 362.131 262.569C364.751 257.885 363.392 251.18 358.092 242.615C366.727 242.311 372.304 239.995 374.702 235.709C377.567 230.588 375.674 223.053 369.078 213.31H369.08ZM194.265 156.299C237.362 180.556 276.174 206.777 304.481 230.705C268.994 219.021 225.653 199.169 181.733 174.448C138.636 150.191 99.8244 123.97 71.5178 100.041C107.006 111.726 150.343 131.576 194.265 156.299ZM181.204 175.395C226.225 200.735 270.642 220.966 306.652 232.553C307.809 233.546 308.95 234.536 310.069 235.519C323.989 247.75 334.204 258.613 340.428 267.806C340.557 267.996 340.682 268.182 340.806 268.37C340.604 268.362 340.402 268.353 340.198 268.342C329.133 267.803 314.568 264.719 296.909 259.175C260.535 247.755 215.168 227.204 169.162 201.309C123.156 175.413 82.0292 147.279 53.3592 122.088C39.4395 109.857 29.2251 98.9943 23.0006 89.8009C22.8722 89.6116 22.747 89.4255 22.6232 89.2378C22.8243 89.2455 23.0269 89.2548 23.2295 89.2641C34.2944 89.8025 48.859 92.8866 66.5181 98.4312C67.2774 98.6701 68.0414 98.9121 68.8084 99.1588C97.3253 123.588 137.02 150.525 181.202 175.393L181.204 175.395ZM17.4256 68.5441C19.688 64.4997 25.1749 62.3634 33.7655 62.1695C34.0593 62.624 34.3625 63.0848 34.6779 63.5502C40.9535 72.8196 51.2298 83.7521 65.2175 96.0436C65.7155 96.4811 66.2166 96.9186 66.7223 97.3592C49.0291 91.8115 34.415 88.7227 23.282 88.1813C22.8135 88.158 22.3526 88.141 21.8979 88.127C16.4436 79.5727 14.9373 72.9918 17.424 68.5456L17.4256 68.5441ZM346.003 289.063C343.629 293.308 337.702 295.452 328.363 295.452C327.291 295.452 326.174 295.424 325.013 295.367C313.948 294.828 299.383 291.744 281.724 286.199C245.351 274.78 199.983 254.229 153.977 228.333C107.971 202.438 66.8444 174.304 38.1745 149.111C24.2548 136.88 14.0403 126.018 7.81582 116.824C1.46913 107.451 -0.406735 100.299 2.24081 95.5674C4.61464 91.3228 10.5422 89.1788 19.8814 89.1788C20.3453 89.1788 20.8201 89.1835 21.301 89.1943C21.5608 89.5961 21.8299 89.9995 22.1067 90.4091C28.3823 99.6785 38.6585 110.611 52.6463 122.902C81.3719 148.142 122.564 176.322 168.633 202.253C214.702 228.185 260.143 248.767 296.587 260.208C314.335 265.78 328.991 268.88 340.147 269.423C340.615 269.446 341.076 269.463 341.531 269.477C346.985 278.032 348.491 284.612 346.005 289.059L346.003 289.063ZM361.188 262.038C358.695 266.494 352.286 268.635 342.128 268.411C341.868 268.01 341.599 267.605 341.322 267.197C335.046 257.927 324.77 246.995 310.782 234.703C310.284 234.266 309.783 233.828 309.278 233.388C326.971 238.936 341.585 242.024 352.718 242.566C354.156 242.636 355.528 242.662 356.836 242.646C362.193 251.108 363.658 257.626 361.189 262.038H361.188Z" fill="#FDFDFD"/>
<path d="M214.761 293.955C214.761 298.417 206.016 302.033 195.227 302.033C184.439 302.033 175.694 298.417 175.694 293.955C175.694 289.493 184.439 285.878 195.227 285.878C206.016 285.878 214.761 289.495 214.761 293.955Z" fill="#303745"/>
<path d="M208.193 150.072L203.649 287.678C203.489 292.541 199.426 296.355 194.578 296.193C189.934 296.04 186.249 292.268 186.086 287.678L181.544 150.072H208.193Z" fill="#F2F2F2"/>
<path d="M208.193 150.072L207.16 181.364L203.651 287.678C203.489 292.541 199.428 296.356 194.578 296.195C191.058 296.077 188.09 293.883 186.788 290.829C187.589 291.105 188.443 291.266 189.334 291.297C194.182 291.457 198.243 287.644 198.405 282.779L201.727 182.121C199.463 182.346 197.174 182.458 194.87 182.458C190.702 182.458 186.592 182.09 182.576 181.364L181.543 150.072H208.193Z" fill="#FDFDFD"/>
<path d="M243.455 60.0799C230.478 47.0608 213.222 39.8904 194.87 39.8904C176.518 39.8904 159.26 47.0608 146.282 60.0799C133.304 73.099 126.156 90.4076 126.156 108.819C126.156 127.231 133.304 144.543 146.282 157.562C159.26 170.581 176.517 177.75 194.87 177.75C213.224 177.75 230.478 170.581 243.455 157.562C256.433 144.543 263.583 127.231 263.583 108.819C263.583 90.4076 256.433 73.099 243.455 60.0799ZM195.762 60.3777C195.762 62.0206 194.477 63.3672 192.841 63.4557C170.809 64.6347 152.285 79.0779 145.063 98.968C144.225 101.273 141.851 102.635 139.449 102.17C136.7 101.636 134.938 98.9277 135.548 96.1849C141.475 69.5262 164.544 49.3522 192.547 47.9094C194.298 47.8194 195.762 49.2312 195.762 50.9889V60.3777Z" fill="#FFEF3D"/>
<path d="M260.597 108.858C260.597 126.46 253.763 143.007 241.355 155.453C228.95 167.898 212.452 174.752 194.91 174.752C177.369 174.752 160.868 167.9 148.461 155.453C139.669 146.632 133.675 135.751 130.93 123.897C133.854 130.383 137.959 136.35 143.125 141.533C154.39 152.833 169.37 159.057 185.302 159.057C201.234 159.057 216.211 152.835 227.477 141.533C238.743 130.231 244.949 115.205 244.949 99.2224C244.949 83.2402 238.745 68.2152 227.477 56.915C222.311 51.7303 216.363 47.6145 209.897 44.6809C221.717 47.4346 232.564 53.4461 241.355 62.2672C253.761 74.7123 260.597 91.2592 260.597 108.861V108.858Z" fill="#EDD202"/>
<path d="M192.11 280.388C190.426 280.388 189.04 279.041 188.997 277.343L187.961 237.044C187.917 235.319 189.275 233.884 190.996 233.839C191.023 233.839 191.05 233.839 191.078 233.839C192.761 233.839 194.146 235.187 194.191 236.885L195.226 277.183C195.271 278.91 193.911 280.345 192.192 280.388C192.164 280.388 192.138 280.388 192.11 280.388Z" fill="#FDFDFD"/>
<path d="M91.7194 48.7129C96.5877 48.7129 100.534 44.7539 100.534 39.8701C100.534 34.9864 96.5877 31.0273 91.7194 31.0273C86.851 31.0273 82.9045 34.9864 82.9045 39.8701C82.9045 44.7539 86.851 48.7129 91.7194 48.7129Z" fill="#FFEF3D"/>
<path d="M278.223 274.747C282.237 274.747 285.492 271.483 285.492 267.456C285.492 263.429 282.237 260.164 278.223 260.164C274.209 260.164 270.955 263.429 270.955 267.456C270.955 271.483 274.209 274.747 278.223 274.747Z" fill="#FFEF3D"/>
<path d="M63.2644 26.3733C70.5241 26.3733 76.4093 20.4694 76.4093 13.1866C76.4093 5.90386 70.5241 0 63.2644 0C56.0046 0 50.1194 5.90386 50.1194 13.1866C50.1194 20.4694 56.0046 26.3733 63.2644 26.3733Z" fill="#FDFDFD"/>
<path d="M63.2644 216.13L70.9952 212.564C72.7488 211.756 74.5582 213.571 73.7525 215.33L70.1972 223.085L73.7525 230.84C74.5582 232.6 72.7488 234.415 70.9952 233.607L63.2644 230.04L55.5336 233.607C53.7799 234.415 51.9705 232.6 52.7762 230.84L56.3316 223.085L52.7762 215.33C51.9705 213.571 53.7799 211.756 55.5336 212.564L63.2644 216.13Z" fill="#FDFDFD"/>
<path d="M148.32 261.758L153.731 259.262C155.485 258.453 157.294 260.268 156.488 262.028L154 267.456L156.488 272.884C157.294 274.643 155.485 276.458 153.731 275.65L148.32 273.154L142.909 275.65C141.155 276.458 139.346 274.643 140.152 272.884L142.64 267.456L140.152 262.028C139.346 260.268 141.155 258.453 142.909 259.262L148.32 261.758Z" fill="#FDFDFD"/>
<path d="M327.396 51.099C327.396 50.103 326.498 49.1954 325.505 49.1954C324.419 49.1954 323.521 50.103 323.521 51.099C323.521 52.1818 324.419 53.0894 325.505 53.0894C326.498 53.0894 327.396 52.1818 327.396 51.099Z" fill="#FFEF3D"/>
<path d="M325.468 37.0776C314.577 37.0776 305.75 45.9328 305.75 56.8576C305.75 67.7823 314.577 76.6375 325.468 76.6375C336.358 76.6375 345.185 67.7823 345.185 56.8576C345.185 45.9328 336.358 37.0776 325.468 37.0776ZM325.506 45.2999C328.663 45.2999 331.279 47.9248 331.279 51.0989C331.279 56.0617 325.506 65.1915 325.506 65.1915C325.506 65.1915 319.641 56.1626 319.641 51.0989C319.641 47.9248 322.257 45.2999 325.506 45.2999ZM325.506 68.2648C319.82 68.2648 314.047 66.9229 314.047 64.3848C314.047 62.2207 317.742 61.2262 319.913 60.8648L320.18 62.3075C316.664 62.942 315.485 63.938 315.485 64.3848C315.485 65.1915 319.28 66.822 325.506 66.822C331.732 66.822 335.428 65.1915 335.428 64.3848C335.428 63.938 334.436 62.9436 330.741 62.3075L331.007 60.8648C334.889 61.5861 336.873 62.7543 336.873 64.3848C336.873 66.9229 331.187 68.2648 325.506 68.2648Z" fill="#FFEF3D"/>
<path d="M263.609 5.58496C252.122 5.58496 242.809 14.9273 242.809 26.4509C242.809 37.9744 252.122 47.3168 263.609 47.3168C275.096 47.3168 284.409 37.9744 284.409 26.4509C284.409 14.9273 275.096 5.58496 263.609 5.58496ZM262.649 10.8596H265.179V13.877H262.649V10.8596ZM252.434 27.4872V27.0078L254.714 24.9522H269.268L269.507 25.3168L267.457 27.239C268.185 27.9697 269.756 28.93 269.268 29.6405H254.714L252.434 27.4872ZM262.649 24.7195V20.4921H265.179V24.7195H262.649ZM270.591 40.3666C270.591 40.9825 270.103 41.4619 269.509 41.4619H258.452C257.839 41.4619 257.36 40.9825 257.36 40.3666V40.0207C257.36 39.4048 257.609 37.3678 260.493 37.3678H262.534L262.649 29.7739H265.179L265.063 37.0033V37.3678H267.458C270.468 37.3678 270.593 39.4048 270.593 40.0207V40.3666H270.591ZM274.798 17.4715L271.912 20.1259H253.277C252.549 19.2991 254.599 17.9726 255.558 17.1271L252.798 14.5891L253.277 14.1082H271.912L274.798 16.761V17.4715Z" fill="#FDFDFD"/>
<path d="M331.344 104.097C320.454 104.097 311.627 112.952 311.627 123.877C311.627 134.801 320.454 143.657 331.344 143.657C342.234 143.657 351.062 134.801 351.062 123.877C351.062 112.952 342.234 104.097 331.344 104.097ZM326.689 132.735L319.469 135.161V115.732L326.689 113.29V132.735ZM334.745 134.981L327.622 132.63V113.2L334.745 115.537V134.981ZM343.182 132.54L335.775 134.981V115.537L343.182 113.095V132.54Z" fill="#FDFDFD"/>
</g>
<defs>
<clipPath id="clip0_128_270">
<rect width="376" height="302.033" fill="white"/>
</clipPath>
</defs>
</svg>
