<svg viewBox="0 0 376 303" fill="none" xmlns="http://www.w3.org/2000/svg">
<g clip-path="url(#clip0_128_270)">
<path d="M369.08 213.81C362.804 204.541 352.528 193.608 338.538 181.317C309.813 156.077 268.621 127.897 222.552 101.966C211.025 95.4763 199.536 89.3236 188.217 83.5633C187.894 83.8053 187.568 84.0458 187.238 84.2832C198.701 90.107 210.341 96.3373 222.023 102.912C268.029 128.807 309.156 156.941 337.825 182.134C351.745 194.365 361.96 205.228 368.184 214.421C374.531 223.795 376.407 230.946 373.759 235.678C371.497 239.722 366.01 241.859 357.419 242.053C357.125 241.598 356.821 241.137 356.507 240.672C350.231 231.403 339.955 220.47 325.967 208.179C297.242 182.939 256.05 154.757 209.981 128.828C191.434 118.388 172.988 108.816 155.191 100.358C154.705 100.538 154.229 100.712 153.762 100.881C171.834 109.44 190.59 119.158 209.452 129.775C255.458 155.671 296.583 183.805 325.254 208.996C339.174 221.227 349.388 232.09 355.613 241.283C355.791 241.547 355.965 241.808 356.137 242.068H356.12C355.048 242.068 353.932 242.04 352.77 241.983C341.706 241.445 327.141 238.36 309.482 232.816C308.723 232.577 307.957 232.335 307.192 232.088C278.675 207.66 238.98 180.722 194.797 155.854C149.777 130.514 105.359 110.283 69.3497 98.6954C68.1914 97.7025 67.0517 96.7127 65.932 95.7292C52.0123 83.4982 41.7979 72.6355 35.5733 63.4421C35.3955 63.1783 35.2207 62.9177 35.0491 62.6571H35.0661C36.1378 62.6571 37.2559 62.685 38.4157 62.7424C49.4807 63.2807 64.0453 66.3649 81.7044 71.9094C98.0274 77.0336 116.163 83.9993 135.353 92.4589C135.365 92.0928 135.385 91.7065 135.415 91.3C116.324 82.8978 98.281 75.9756 82.0276 70.8716C64.2804 65.2991 49.6245 62.1994 38.4683 61.6565C37.3038 61.5991 36.1826 61.5711 35.1048 61.5711C34.8511 61.5711 34.5991 61.5711 34.3501 61.5758C28.9931 53.1146 27.5286 46.5958 29.9968 42.1837C32.6428 37.452 39.707 35.3313 50.987 35.8805C62.0519 36.4188 76.6165 39.5029 94.2756 45.0475C110.681 50.198 128.916 57.2071 148.213 65.7241C148.493 65.4542 148.781 65.1858 149.073 64.9174C129.58 56.298 111.16 49.2098 94.5989 44.0112C76.8516 38.4387 62.1958 35.339 51.0395 34.7961C39.3127 34.2252 31.9159 36.532 29.0519 41.6531C26.4322 46.3367 27.7915 53.0417 33.0913 61.6068C24.4558 61.9109 18.8792 64.2271 16.4807 68.5135C13.847 73.2219 15.2342 79.9704 20.602 88.6006C10.4232 88.4951 3.93419 90.8206 1.29438 95.5383C-1.56968 100.659 0.323197 108.194 6.91887 117.937C13.1944 127.206 23.4707 138.139 37.46 150.43C66.1856 175.67 107.377 203.85 153.447 229.781C199.516 255.712 244.957 276.294 281.4 287.736C299.147 293.308 313.803 296.408 324.959 296.951C326.123 297.008 327.245 297.036 328.322 297.036C338.107 297.036 344.367 294.706 346.947 290.094C349.58 285.385 348.193 278.637 342.825 270.007C353.006 270.112 359.493 267.787 362.131 263.069C364.751 258.385 363.392 251.68 358.092 243.115C366.727 242.811 372.304 240.495 374.702 236.209C377.567 231.088 375.674 223.553 369.078 213.81H369.08ZM194.265 156.799C237.362 181.056 276.174 207.277 304.481 231.205C268.994 219.521 225.653 199.669 181.733 174.948C138.636 150.691 99.8244 124.47 71.5178 100.541C107.006 112.226 150.343 132.076 194.265 156.799ZM181.204 175.895C226.225 201.235 270.642 221.466 306.652 233.053C307.809 234.046 308.95 235.036 310.069 236.019C323.989 248.25 334.204 259.113 340.428 268.306C340.557 268.496 340.682 268.682 340.806 268.87C340.604 268.862 340.402 268.853 340.198 268.842C329.133 268.303 314.568 265.219 296.909 259.675C260.535 248.255 215.168 227.704 169.162 201.809C123.156 175.913 82.0292 147.779 53.3592 122.588C39.4395 110.357 29.2251 99.4943 23.0006 90.3009C22.8722 90.1116 22.747 89.9255 22.6232 89.7378C22.8243 89.7455 23.0269 89.7548 23.2295 89.7641C34.2944 90.3025 48.859 93.3866 66.5181 98.9312C67.2774 99.1701 68.0414 99.4121 68.8084 99.6588C97.3253 124.088 137.02 151.025 181.202 175.893L181.204 175.895ZM17.4256 69.0441C19.688 64.9997 25.1749 62.8634 33.7655 62.6695C34.0593 63.124 34.3625 63.5848 34.6779 64.0502C40.9535 73.3196 51.2298 84.2521 65.2175 96.5436C65.7155 96.9811 66.2166 97.4186 66.7223 97.8592C49.0291 92.3115 34.415 89.2227 23.282 88.6813C22.8135 88.658 22.3526 88.641 21.8979 88.627C16.4436 80.0727 14.9373 73.4918 17.424 69.0456L17.4256 69.0441ZM346.003 289.563C343.629 293.808 337.702 295.952 328.363 295.952C327.291 295.952 326.174 295.924 325.013 295.867C313.948 295.328 299.383 292.244 281.724 286.699C245.351 275.28 199.983 254.729 153.977 228.833C107.971 202.938 66.8444 174.804 38.1745 149.611C24.2548 137.38 14.0403 126.518 7.81582 117.324C1.46913 107.951 -0.406735 100.799 2.24081 96.0674C4.61464 91.8228 10.5422 89.6788 19.8814 89.6788C20.3453 89.6788 20.8201 89.6835 21.301 89.6943C21.5608 90.0961 21.8299 90.4995 22.1067 90.9091C28.3823 100.178 38.6585 111.111 52.6463 123.402C81.3719 148.642 122.564 176.822 168.633 202.753C214.702 228.685 260.143 249.267 296.587 260.708C314.335 266.28 328.991 269.38 340.147 269.923C340.615 269.946 341.076 269.963 341.531 269.977C346.985 278.532 348.491 285.112 346.005 289.559L346.003 289.563ZM361.188 262.538C358.695 266.994 352.286 269.135 342.128 268.911C341.868 268.51 341.599 268.105 341.322 267.697C335.046 258.427 324.77 247.495 310.782 235.203C310.284 234.766 309.783 234.328 309.278 233.888C326.971 239.436 341.585 242.524 352.718 243.066C354.156 243.136 355.528 243.162 356.836 243.146C362.193 251.608 363.658 258.126 361.189 262.538H361.188Z" fill="#FDFDFD"/>
<path d="M208.067 282.076C208.067 286.538 199.322 290.154 188.533 290.154C177.745 290.154 169 286.538 169 282.076C169 277.615 177.745 274 188.533 274C199.322 274 208.067 277.616 208.067 282.076Z" fill="#252A33"/>
<path d="M91.7194 49.2129C96.5877 49.2129 100.534 45.2539 100.534 40.3701C100.534 35.4864 96.5877 31.5273 91.7194 31.5273C86.851 31.5273 82.9045 35.4864 82.9045 40.3701C82.9045 45.2539 86.851 49.2129 91.7194 49.2129Z" fill="#FFEF3D"/>
<path d="M278.223 275.247C282.237 275.247 285.492 271.983 285.492 267.956C285.492 263.929 282.237 260.664 278.223 260.664C274.209 260.664 270.955 263.929 270.955 267.956C270.955 271.983 274.209 275.247 278.223 275.247Z" fill="#FFEF3D"/>
<path d="M63.2644 26.8733C70.5241 26.8733 76.4093 20.9694 76.4093 13.6866C76.4093 6.40386 70.5241 0.5 63.2644 0.5C56.0046 0.5 50.1194 6.40386 50.1194 13.6866C50.1194 20.9694 56.0046 26.8733 63.2644 26.8733Z" fill="#FDFDFD"/>
<path d="M39.6855 194.765L47.4162 191.198C49.1699 190.39 50.9793 192.205 50.1736 193.964L46.6183 201.719L50.1736 209.475C50.9793 211.234 49.1699 213.049 47.4162 212.241L39.6855 208.674L31.9547 212.241C30.201 213.049 28.3916 211.234 29.1973 209.475L32.7526 201.719L29.1973 193.964C28.3916 192.205 30.201 190.39 31.9547 191.198L39.6855 194.765Z" fill="#FDFDFD"/>
<path d="M316.646 61.0213C316.646 60.0254 315.747 59.1178 314.755 59.1178C313.669 59.1178 312.77 60.0254 312.77 61.0213C312.77 62.1042 313.669 63.0117 314.755 63.0117C315.747 63.0117 316.646 62.1042 316.646 61.0213Z" fill="#FFEF3D"/>
<path d="M314.717 47C303.827 47 295 55.8552 295 66.7799C295 77.7047 303.827 86.5599 314.717 86.5599C325.608 86.5599 334.435 77.7047 334.435 66.7799C334.435 55.8552 325.608 47 314.717 47ZM314.756 55.2223C317.912 55.2223 320.529 57.8472 320.529 61.0213C320.529 65.9841 314.756 75.1139 314.756 75.1139C314.756 75.1139 308.89 66.0849 308.89 61.0213C308.89 57.8472 311.507 55.2223 314.756 55.2223ZM314.756 78.1872C309.07 78.1872 303.297 76.8452 303.297 74.3072C303.297 72.143 306.991 71.1486 309.163 70.7871L309.43 72.2299C305.913 72.8644 304.735 73.8604 304.735 74.3072C304.735 75.1139 308.53 76.7444 314.756 76.7444C320.982 76.7444 324.678 75.1139 324.678 74.3072C324.678 73.8604 323.685 72.866 319.991 72.2299L320.257 70.7871C324.139 71.5085 326.123 72.6767 326.123 74.3072C326.123 76.8452 320.436 78.1872 314.756 78.1872Z" fill="#FFEF3D"/>
<path d="M270.8 7C259.313 7 250 16.3423 250 27.8659C250 39.3895 259.313 48.7318 270.8 48.7318C282.287 48.7318 291.6 39.3895 291.6 27.8659C291.6 16.3423 282.287 7 270.8 7ZM269.84 12.2747H272.37V15.2921H269.84V12.2747ZM259.625 28.9022V28.4228L261.905 26.3673H276.458L276.698 26.7319L274.648 28.654C275.376 29.3847 276.947 30.345 276.458 31.0555H261.905L259.625 28.9022ZM269.84 26.1346V21.9071H272.37V26.1346H269.84ZM277.782 41.7817C277.782 42.3976 277.294 42.8769 276.7 42.8769H265.643C265.03 42.8769 264.551 42.3976 264.551 41.7817V41.4357C264.551 40.8198 264.8 38.7829 267.684 38.7829H269.725L269.84 31.1889H272.37L272.254 38.4183V38.7829H274.649C277.659 38.7829 277.784 40.8198 277.784 41.4357V41.7817H277.782ZM281.989 18.8866L279.103 21.541H260.468C259.74 20.7141 261.79 19.3877 262.749 18.5422L259.989 16.0041L260.468 15.5232H279.103L281.989 18.1761V18.8866Z" fill="#FDFDFD"/>
<path d="M324.717 102C313.827 102 305 110.855 305 121.78C305 132.705 313.827 141.56 324.717 141.56C335.608 141.56 344.435 132.705 344.435 121.78C344.435 110.855 335.608 102 324.717 102ZM320.063 130.638L312.842 133.065V113.635L320.063 111.193V130.638ZM328.118 132.885L320.995 130.533V111.103L328.118 113.44V132.885ZM336.556 130.443L329.148 132.885V113.44L336.556 110.998V130.443Z" fill="#FDFDFD"/>
<g clip-path="url(#clip1_128_270)">
<path d="M271 116.405C271 161.915 189 282 189 282C189 282 107 161.915 107 116.405C107 70.8948 143.714 34 189 34C234.286 34 271 70.8948 271 116.405Z" fill="#FFEF3D"/>
<path d="M216.255 140.161C231.307 125.034 231.307 100.509 216.255 85.3829C201.202 70.2564 176.798 70.2564 161.746 85.3829C146.693 100.509 146.693 125.034 161.746 140.161C176.798 155.287 201.202 155.287 216.255 140.161Z" fill="white"/>
<path d="M121.055 123.642C121.055 84.1075 152.947 52.0583 192.288 52.0583C215.284 52.0583 235.729 63.0122 248.755 80.0059C236.454 58.5482 213.401 44.0994 186.988 44.0994C147.643 44.0994 115.751 76.1486 115.751 115.684C115.751 132.109 121.26 147.241 130.52 159.32C124.499 148.816 121.055 136.634 121.055 123.642Z" fill="#E5D83F"/>
<path d="M169.664 250.481C180.837 269.295 189 282 189 282C189 282 271 161.915 271 116.405C271 114.016 270.875 111.654 270.677 109.319C267.443 121.964 262.868 134.272 257.249 146.023C241.728 178.492 218.773 199.294 194.327 225.635C186.445 234.124 178.24 242.522 169.66 250.485L169.664 250.481Z" fill="#DDCD19"/>
</g>
<path d="M101.366 246.694L106.777 244.198C108.531 243.39 110.34 245.205 109.534 246.964L107.046 252.392L109.534 257.82C110.34 259.58 108.531 261.395 106.777 260.587L101.366 258.09L95.9547 260.587C94.201 261.395 92.3916 259.58 93.1973 257.82L95.6856 252.392L93.1973 246.964C92.3916 245.205 94.201 243.39 95.9547 244.198L101.366 246.694Z" fill="#FDFDFD"/>
</g>
<defs>
<clipPath id="clip0_128_270">
<rect width="376" height="302.033" fill="white" transform="translate(0 0.5)"/>
</clipPath>
<clipPath id="clip1_128_270">
<rect width="164" height="248" fill="white" transform="translate(107 34)"/>
</clipPath>
</defs>
</svg>
