<svg viewBox="0 0 21 21" xmlns="http://www.w3.org/2000/svg">
<path d="M10.5 21C13.2848 21 15.9555 19.8938 17.9246 17.9246C19.8938 15.9555 21 13.2848 21 10.5C21 7.71523 19.8938 5.04451 17.9246 3.07538C15.9555 1.10625 13.2848 0 10.5 0C7.71523 0 5.04451 1.10625 3.07538 3.07538C1.10625 5.04451 0 7.71523 0 10.5C0 13.2848 1.10625 15.9555 3.07538 17.9246C5.04451 19.8938 7.71523 21 10.5 21ZM11.7206 8.64675L10.4081 14.8221C10.3162 15.2683 10.4462 15.5216 10.8071 15.5216C11.0618 15.5216 11.4463 15.4297 11.7075 15.1987L11.592 15.7448C11.2153 16.1989 10.3845 16.5296 9.66919 16.5296C8.7465 16.5296 8.35406 15.9757 8.60869 14.7984L9.57731 10.2467C9.66131 9.86213 9.58519 9.723 9.20063 9.62981L8.60869 9.5235L8.71631 9.02344L11.7206 8.64675ZM10.5 7.21875C10.1519 7.21875 9.81806 7.08047 9.57192 6.83433C9.32578 6.58819 9.1875 6.25435 9.1875 5.90625C9.1875 5.55815 9.32578 5.22431 9.57192 4.97817C9.81806 4.73203 10.1519 4.59375 10.5 4.59375C10.8481 4.59375 11.1819 4.73203 11.4281 4.97817C11.6742 5.22431 11.8125 5.55815 11.8125 5.90625C11.8125 6.25435 11.6742 6.58819 11.4281 6.83433C11.1819 7.08047 10.8481 7.21875 10.5 7.21875Z" fill="#4285F4"/>
</svg>
