<svg viewBox="0 0 36 36" xmlns="http://www.w3.org/2000/svg">
<path d="M33.333 17.667C33.333 15.6685 32.9585 13.7574 32.2764 12H23.249L31.1396 25.6641C32.5323 23.323 33.3329 20.5887 33.333 17.667ZM17.4756 33.3301C17.5392 33.3308 17.6032 33.333 17.667 33.333C22.6044 33.3329 27.0064 31.0477 29.8779 27.4785L25.3662 19.666L17.4756 33.3301ZM4.00195 25.333C6.31338 29.4441 10.4254 32.4066 15.2695 33.1504L19.7852 25.333H4.00195ZM11.1211 17.666L14.3936 23.333H20.9404L24.2119 17.667L20.9395 12H14.3936L11.1211 17.666ZM17.667 2C12.7298 2 8.32568 4.28375 5.4541 7.85254L9.9668 15.666L17.8564 2.00195C17.7934 2.0012 17.7302 2 17.667 2ZM15.5488 10H31.3311C29.0193 5.88865 24.9071 2.92505 20.0625 2.18164L15.5488 10ZM2 17.667C2.00004 19.6652 2.37465 21.5758 3.05664 23.333H12.085L4.19336 9.66797C2.80036 12.0093 2 14.7448 2 17.667ZM35.333 17.667C35.3329 21.5538 34.0764 25.1463 31.9492 28.0635C31.9113 28.1297 31.8666 28.1922 31.8135 28.249C28.5912 32.5497 23.4544 35.3329 17.667 35.333C17.03 35.333 16.4008 35.2982 15.7812 35.2324C15.7203 35.2313 15.6593 35.2244 15.5986 35.2119C9.28309 34.4755 3.98523 30.4094 1.50684 24.8145C1.47887 24.7636 1.45542 24.71 1.43652 24.6543C0.512603 22.5112 4.46429e-05 20.149 0 17.667C0 13.781 1.25553 10.1884 3.38184 7.27148C3.42055 7.20347 3.46677 7.13915 3.52148 7.08105C6.74395 2.78189 11.8807 0 17.667 0C18.3057 1.14896e-05 18.9364 0.0354551 19.5576 0.101562C19.616 0.102931 19.6744 0.109276 19.7324 0.121094C26.0484 0.856733 31.3462 4.92278 33.8252 10.5176C33.8536 10.569 33.8774 10.6232 33.8965 10.6797C34.8203 12.8228 35.333 15.185 35.333 17.667Z" fill="black"/>
</svg>
