<svg viewBox="0 0 23 20" fill="none" xmlns="http://www.w3.org/2000/svg">
<path fill-rule="evenodd" clip-rule="evenodd" d="M16.5309 19.9987C16.7215 19.9987 16.9043 19.9235 17.039 19.7895C17.1738 19.6556 17.2495 19.4739 17.2495 19.2845V2.43954L21.7716 6.93468C21.9065 7.06878 22.0895 7.14412 22.2804 7.14412C22.4712 7.14412 22.6543 7.06878 22.7892 6.93468C22.9242 6.80057 23 6.61868 23 6.42903C23 6.23937 22.9242 6.05748 22.7892 5.92338L17.0397 0.209821C16.9729 0.143311 16.8936 0.0905423 16.8063 0.0545377C16.719 0.0185331 16.6254 0 16.5309 0C16.4363 0 16.3427 0.0185331 16.2554 0.0545377C16.1681 0.0905423 16.0888 0.143311 16.022 0.209821L10.2725 5.92338C10.1375 6.05748 10.0617 6.23937 10.0617 6.42903C10.0617 6.61868 10.1375 6.80057 10.2725 6.93468C10.4074 7.06878 10.5905 7.14412 10.7813 7.14412C10.9722 7.14412 11.1552 7.06878 11.2901 6.93468L15.8122 2.43954V19.2845C15.8122 19.4739 15.8879 19.6556 16.0227 19.7895C16.1574 19.9235 16.3402 19.9987 16.5309 19.9987ZM6.46915 0.00127665C6.65976 0.00127665 6.84256 0.0765219 6.97734 0.210459C7.11212 0.344397 7.18784 0.526055 7.18784 0.715471V17.5605L11.7099 13.0653C11.8448 12.9312 12.0278 12.8559 12.2187 12.8559C12.4095 12.8559 12.5926 12.9312 12.7275 13.0653C12.8625 13.1994 12.9383 13.3813 12.9383 13.571C12.9383 13.7606 12.8625 13.9425 12.7275 14.0766L6.97798 19.7902C6.91122 19.8567 6.83191 19.9095 6.7446 19.9455C6.65728 19.9815 6.56368 20 6.46915 20C6.37461 20 6.28101 19.9815 6.1937 19.9455C6.10638 19.9095 6.02707 19.8567 5.96031 19.7902L0.210766 14.0766C0.0758149 13.9425 -4.49658e-09 13.7606 0 13.571C4.49658e-09 13.3813 0.0758149 13.1994 0.210766 13.0653C0.345718 12.9312 0.528751 12.8559 0.719601 12.8559C0.910451 12.8559 1.09348 12.9312 1.22844 13.0653L5.75045 17.5605V0.715471C5.75045 0.526055 5.82617 0.344397 5.96095 0.210459C6.09574 0.0765219 6.27854 0.00127665 6.46915 0.00127665Z" fill="#4285F4"/>
</svg>
 