<svg viewBox="0 0 36 32" xmlns="http://www.w3.org/2000/svg">
<path d="M13.333 23.667H2V27.667C2.00009 28.2857 2.24609 28.8789 2.68359 29.3164C3.1211 29.7539 3.71429 29.9999 4.33301 30H11C11.6188 30 12.2128 29.754 12.6504 29.3164C13.0877 28.8789 13.3329 28.2856 13.333 27.667V23.667ZM33.333 23.667H22V27.667C22.0001 28.2857 22.2461 28.8789 22.6836 29.3164C23.1211 29.7539 23.7143 29.9999 24.333 30H31C31.6188 30 32.2128 29.754 32.6504 29.3164C33.0877 28.8789 33.3329 28.2856 33.333 27.667V23.667ZM15.333 21.667H20V13.667H15.333V21.667ZM13.333 9.33301C13.3329 9.15631 13.2626 8.98725 13.1377 8.8623C13.0127 8.73736 12.8437 8.66708 12.667 8.66699H6C5.82319 8.66699 5.65335 8.73728 5.52832 8.8623C5.40358 8.98722 5.33309 9.15647 5.33301 9.33301V13.2002C5.33294 15.0826 4.32974 16.7474 3.51465 18.0518C3.08188 18.7443 2.70004 19.334 2.41406 19.9014C2.12879 20.4674 2.00007 20.8992 2 21.248V21.667H13.333V9.33301ZM30 9.33301C29.9999 9.15639 29.9295 8.98724 29.8047 8.8623C29.6797 8.73728 29.5098 8.66699 29.333 8.66699H22.667C22.4902 8.66699 22.3203 8.73728 22.1953 8.8623C22.0705 8.98724 22.0001 9.15639 22 9.33301V21.667H33.333V21.248C33.3329 20.8992 33.2051 20.4673 32.9199 19.9014C32.6339 19.334 32.2511 18.7443 31.8184 18.0518C31.0033 16.7474 30.0001 15.0825 30 13.2002V9.33301ZM11.667 2.66699C11.667 2.49026 11.5966 2.32032 11.4717 2.19531C11.3779 2.10158 11.2589 2.03833 11.1309 2.0127L11 2H7.66699C7.49018 2 7.32034 2.07029 7.19531 2.19531C7.07029 2.32034 7 2.49018 7 2.66699V6.66699H11.667V2.66699ZM28.333 2.66699C28.333 2.49018 28.2627 2.32033 28.1377 2.19531C28.0128 2.07047 27.8436 2.00009 27.667 2H24.333C24.1564 2.00009 23.9872 2.07047 23.8623 2.19531C23.7373 2.32034 23.667 2.49018 23.667 2.66699V6.66699H28.333V2.66699ZM30.333 6.8623C30.6613 6.9951 30.9635 7.19208 31.2188 7.44727C31.7188 7.94729 31.9999 8.62588 32 9.33301V13.2002C32.0001 14.4291 32.6632 15.6297 33.5146 16.9922C33.9152 17.6332 34.3661 18.3284 34.7051 19.001C35.0446 19.6747 35.3329 20.4388 35.333 21.248V27.667C35.3329 28.816 34.8768 29.9179 34.0645 30.7305C33.2518 31.5431 32.1493 32 31 32H24.333C23.1839 31.9999 22.0821 31.543 21.2695 30.7305C20.457 29.9179 20.0001 28.8161 20 27.667V23.667H15.333V27.667C15.3329 28.816 14.8768 29.9179 14.0645 30.7305C13.2518 31.5431 12.1493 32 11 32H4.33301C3.18385 31.9999 2.08211 31.543 1.26953 30.7305C0.456951 29.9179 8.63681e-05 28.8161 0 27.667V21.248C6.79119e-05 20.4388 0.288361 19.6747 0.62793 19.001C0.966952 18.3283 1.41779 17.6332 1.81836 16.9922C2.66982 15.6296 3.33294 14.4292 3.33301 13.2002V9.33301C3.33309 8.62588 3.61424 7.94729 4.11426 7.44727C4.3695 7.19207 4.67179 6.99513 5 6.8623V2.66699C5 1.95975 5.28115 1.28135 5.78125 0.78125C6.28135 0.281153 6.95975 0 7.66699 0H11C11.7072 0 12.3856 0.281153 12.8857 0.78125C13.3857 1.28133 13.667 1.95983 13.667 2.66699V6.8623C13.9952 6.99516 14.2975 7.19206 14.5527 7.44727C15.0528 7.94729 15.3329 8.62588 15.333 9.33301V11.667H20V9.33301C20.0001 8.62588 20.2812 7.94729 20.7812 7.44727C21.0365 7.19208 21.3387 6.9951 21.667 6.8623V2.66699C21.667 1.9599 21.9474 1.28132 22.4473 0.78125C22.9473 0.28123 23.6259 8.58577e-05 24.333 0H27.667C28.3741 8.63626e-05 29.0527 0.281229 29.5527 0.78125C30.0526 1.28132 30.333 1.9599 30.333 2.66699V6.8623Z" fill="black"/>
</svg>
