<svg viewBox="0 0 24 21" xmlns="http://www.w3.org/2000/svg">
<path d="M0 3C0 2.20435 0.316071 1.44129 0.87868 0.87868C1.44129 0.316071 2.20435 2.67407e-07 3 2.67407e-07H13.62C14.0528 -0.000182473 14.4806 0.0932982 14.8739 0.274025C15.2672 0.454751 15.6167 0.718444 15.8985 1.047L23.163 9.5235C23.3962 9.79541 23.5244 10.1418 23.5244 10.5C23.5244 10.8582 23.3962 11.2046 23.163 11.4765L15.9 19.95C15.6183 20.2793 15.2687 20.5437 14.8751 20.7249C14.4815 20.9062 14.0533 21 13.62 21H3C2.20435 21 1.44129 20.6839 0.87868 20.1213C0.316071 19.5587 0 18.7956 0 18V3ZM14.781 7.281C14.8507 7.21127 14.906 7.12848 14.9438 7.03738C14.9815 6.94627 15.0009 6.84862 15.0009 6.75C15.0009 6.65138 14.9815 6.55373 14.9438 6.46262C14.906 6.37152 14.8507 6.28873 14.781 6.219C14.7113 6.14927 14.6285 6.09395 14.5374 6.05621C14.4463 6.01848 14.3486 5.99905 14.25 5.99905C14.1514 5.99905 14.0537 6.01848 13.9626 6.05621C13.8715 6.09395 13.7887 6.14927 13.719 6.219L10.5 9.4395L7.281 6.219C7.21127 6.14927 7.12848 6.09395 7.03738 6.05621C6.94627 6.01848 6.84862 5.99905 6.75 5.99905C6.65138 5.99905 6.55373 6.01848 6.46262 6.05621C6.37152 6.09395 6.28873 6.14927 6.219 6.219C6.14927 6.28873 6.09395 6.37152 6.05621 6.46262C6.01848 6.55373 5.99905 6.65138 5.99905 6.75C5.99905 6.84862 6.01848 6.94627 6.05621 7.03738C6.09395 7.12848 6.14927 7.21127 6.219 7.281L9.4395 10.5L6.219 13.719C6.07817 13.8598 5.99905 14.0508 5.99905 14.25C5.99905 14.4492 6.07817 14.6402 6.219 14.781C6.35983 14.9218 6.55084 15.0009 6.75 15.0009C6.94916 15.0009 7.14017 14.9218 7.281 14.781L10.5 11.5605L13.719 14.781C13.8598 14.9218 14.0508 15.0009 14.25 15.0009C14.4492 15.0009 14.6402 14.9218 14.781 14.781C14.9218 14.6402 15.0009 14.4492 15.0009 14.25C15.0009 14.0508 14.9218 13.8598 14.781 13.719L11.5605 10.5L14.781 7.281Z" fill="#D33124"/>
</svg>
