<svg viewBox="0 0 24 19" xmlns="http://www.w3.org/2000/svg">
<path d="M16.1324 16.844L13.7192 14.4294C12.786 14.7631 11.7773 14.8248 10.8104 14.6076C9.84342 14.3903 8.95806 13.903 8.25729 13.2022C7.55651 12.5014 7.06914 11.6161 6.85189 10.6491C6.63463 9.68218 6.69642 8.67343 7.03006 7.74024L3.95011 4.66029C1.40242 6.9254 0 9.5 0 9.5C0 9.5 4.48536 17.7232 11.961 17.7232C13.397 17.7194 14.8169 17.4202 16.1324 16.844ZM7.78958 2.15596C9.105 1.57984 10.5249 1.28059 11.961 1.27683C19.4366 1.27683 23.9219 9.5 23.9219 9.5C23.9219 9.5 22.518 12.0731 19.9733 14.3412L16.8904 11.2583C17.224 10.3251 17.2858 9.31632 17.0686 8.34938C16.8513 7.38245 16.3639 6.49709 15.6632 5.79631C14.9624 5.09554 14.077 4.60817 13.1101 4.39092C12.1432 4.17366 11.1344 4.23545 10.2012 4.56909L7.78958 2.15596Z" fill="black"/>
<path d="M8.26054 8.97073C8.1783 9.54532 8.23101 10.1312 8.41449 10.6819C8.59797 11.2325 8.90718 11.7329 9.31761 12.1434C9.72805 12.5538 10.2284 12.863 10.7791 13.0465C11.3298 13.23 11.9157 13.2827 12.4902 13.2004L8.26054 8.97073ZM15.6614 10.0293L11.4317 5.79808C12.0063 5.71584 12.5921 5.76854 13.1428 5.95202C13.6935 6.1355 14.1939 6.44471 14.6043 6.85515C15.0148 7.26559 15.324 7.76597 15.5075 8.31666C15.6909 8.86734 15.7436 9.45319 15.6614 10.0278V10.0293ZM20.4024 19L2.46097 1.05855L3.51952 0L21.461 17.9415L20.4024 19Z" fill="black"/>
</svg>
