<svg viewBox="0 0 28 19" xmlns="http://www.w3.org/2000/svg">
<path d="M18.1364 9.5C18.1364 10.6453 17.6814 11.7436 16.8716 12.5534C16.0618 13.3632 14.9634 13.8182 13.8182 13.8182C12.6729 13.8182 11.5746 13.3632 10.7648 12.5534C9.95495 11.7436 9.5 10.6453 9.5 9.5C9.5 8.35475 9.95495 7.2564 10.7648 6.44658C11.5746 5.63677 12.6729 5.18182 13.8182 5.18182C14.9634 5.18182 16.0618 5.63677 16.8716 6.44658C17.6814 7.2564 18.1364 8.35475 18.1364 9.5Z" fill="black"/>
<path d="M0 9.5C0 9.5 5.18182 0 13.8182 0C22.4545 0 27.6364 9.5 27.6364 9.5C27.6364 9.5 22.4545 19 13.8182 19C5.18182 19 0 9.5 0 9.5ZM13.8182 15.5455C15.4215 15.5455 16.9592 14.9085 18.093 13.7748C19.2267 12.641 19.8636 11.1034 19.8636 9.5C19.8636 7.89665 19.2267 6.35896 18.093 5.22522C16.9592 4.09148 15.4215 3.45455 13.8182 3.45455C12.2148 3.45455 10.6771 4.09148 9.5434 5.22522C8.40966 6.35896 7.77273 7.89665 7.77273 9.5C7.77273 11.1034 8.40966 12.641 9.5434 13.7748C10.6771 14.9085 12.2148 15.5455 13.8182 15.5455Z" fill="black"/>
</svg>
