<svg xmlns="http://www.w3.org/2000/svg" viewBox="0 0 24 24" width="24" height="24">
  <path fill="#EA4335" d="M12 5.04c1.67 0 3.19.57 4.38 1.69l3.27-3.27C17.67 1.63 15.01 1 12 1 7.35 1 3.4 3.65 1.54 7.55l3.86 3c.91-2.73 3.45-4.51 6.6-4.51z"/>
  <path fill="#4285F4" d="M23.49 12.27c0-.81-.07-1.59-.2-2.34H12v4.44h6.44c-.28 1.47-1.11 2.72-2.35 3.56l3.64 2.83c2.13-1.97 3.76-4.87 3.76-8.49z"/>
  <path fill="#FBBC05" d="M5.4 14.45c-.23-.69-.36-1.43-.36-2.2s.13-1.51.36-2.2l-3.86-3C.67 8.79 0 10.32 0 12s.67 3.21 1.54 4.96l3.86-2.51z"/>
  <path fill="#34A853" d="M12 23c3.24 0 5.97-1.07 7.96-2.91l-3.64-2.83c-1.01.68-2.31 1.08-4.32 1.08-3.15 0-5.69-1.78-6.6-4.51L1.54 16.8c1.86 3.9 5.81 6.56 10.46 6.56z"/>
</svg>
