<svg viewBox="0 0 20 21" xmlns="http://www.w3.org/2000/svg">
<path d="M7.49952 20.25V14.9929C7.49952 14.6254 7.8745 14.2504 8.24947 14.2504H11.2493C11.6243 14.2504 11.9992 14.6254 11.9992 15.0004V20.25C11.9992 20.4489 12.0782 20.6397 12.2189 20.7803C12.3595 20.921 12.5503 21 12.7492 21H18.7488C18.9477 21 19.1385 20.921 19.2791 20.7803C19.4197 20.6397 19.4988 20.4489 19.4988 20.25V9.75072C19.4989 9.65217 19.4797 9.55455 19.4421 9.46344C19.4045 9.37233 19.3494 9.28953 19.2798 9.21975L17.2489 7.19038V2.2512C17.2489 2.0523 17.1699 1.86154 17.0292 1.7209C16.8886 1.58026 16.6978 1.50124 16.4989 1.50124H14.999C14.8001 1.50124 14.6094 1.58026 14.4687 1.7209C14.3281 1.86154 14.2491 2.0523 14.2491 2.2512V4.19057L10.2803 0.220327C10.2107 0.150486 10.1279 0.0950755 10.0368 0.0572682C9.9457 0.019461 9.84802 0 9.74938 0C9.65073 0 9.55306 0.019461 9.46195 0.0572682C9.37083 0.0950755 9.28808 0.150486 9.21841 0.220327L0.218987 9.21975C0.149389 9.28953 0.0942253 9.37233 0.0566501 9.46344C0.019075 9.55455 -0.000174813 9.65217 1.19617e-06 9.75072V20.25C1.19617e-06 20.4489 0.0790138 20.6397 0.219657 20.7803C0.3603 20.921 0.551054 21 0.749953 21H6.74957C6.94847 21 7.13922 20.921 7.27987 20.7803C7.42051 20.6397 7.49952 20.4489 7.49952 20.25Z" fill="#4285F4"/>
</svg>
