<svg viewBox="0 0 18 16" xmlns="http://www.w3.org/2000/svg">
<path d="M2.25 0.5H15.75C16.2116 0.5 16.6556 0.686474 16.9844 1.02051C17.3135 1.35481 17.5 1.81001 17.5 2.28613V13.7139C17.5 14.19 17.3135 14.6452 16.9844 14.9795C16.6556 15.3135 16.2116 15.5 15.75 15.5H2.25C1.78844 15.5 1.34444 15.3135 1.01562 14.9795C0.686545 14.6452 0.5 14.19 0.5 13.7139V2.28613C0.5 1.81001 0.686545 1.35481 1.01562 1.02051C1.30339 0.72818 1.67931 0.548956 2.07812 0.508789L2.25 0.5ZM2.25 0.642578C1.81654 0.642578 1.40274 0.818111 1.09863 1.12695C0.794777 1.43563 0.625 1.85294 0.625 2.28613V13.6973L1.45996 12.9424L4.43652 10.252L4.44727 10.2422L4.45703 10.2324C4.46775 10.2216 4.48094 10.2161 4.49316 10.2148L4.53027 10.2246L7.52246 12.25L7.86719 12.4824L8.15918 12.1865L12.333 7.94629C12.3427 7.93661 12.3542 7.93151 12.3652 7.92969L12.3994 7.93457L16.6426 10.1572L17.375 10.541V2.28613C17.375 1.85294 17.2052 1.43563 16.9014 1.12695C16.5973 0.818111 16.1835 0.642578 15.75 0.642578H2.25ZM5.0625 3.92871C5.37484 3.92871 5.6761 4.05444 5.89941 4.28125C6.12294 4.50832 6.24993 4.81811 6.25 5.14258C6.25 5.46706 6.12289 5.77678 5.89941 6.00391C5.67609 6.23078 5.37488 6.35742 5.0625 6.35742C4.75012 6.35742 4.44891 6.23078 4.22559 6.00391C4.00211 5.77678 3.875 5.46705 3.875 5.14258C3.87507 4.81811 4.00206 4.50832 4.22559 4.28125C4.4489 4.05444 4.75016 3.92871 5.0625 3.92871Z" fill="#D6D6D6" stroke="#D6D6D6"/>
</svg>
