<svg width="20" height="39" viewBox="0 0 20 39" fill="none" xmlns="http://www.w3.org/2000/svg">
<path d="M12.8922 36.9671C12.8922 37.6163 11.6197 38.1425 10.05 38.1425C8.4803 38.1425 7.20784 37.6163 7.20784 36.9671C7.20784 36.3179 8.4803 35.792 10.05 35.792C11.6197 35.792 12.8922 36.3182 12.8922 36.9671Z" fill="#4285F4"/>
<path d="M11.9366 16.0317L11.2755 36.0538C11.2521 36.7615 10.6609 37.3163 9.95553 37.2928C9.27981 37.2705 8.7436 36.7218 8.71997 36.0538L8.0591 16.0317H11.9366Z" fill="#303745"/>
<path d="M11.9365 16.0317L11.7862 20.5849L11.2757 36.0538C11.252 36.7615 10.6612 37.3166 9.95551 37.2931C9.44337 37.2759 9.01157 36.9567 8.82211 36.5123C8.93866 36.5525 9.06287 36.5759 9.19248 36.5805C9.8979 36.6037 10.4888 36.0489 10.5124 35.341L10.9957 20.6951C10.6663 20.7278 10.3333 20.744 9.99803 20.744C9.39162 20.744 8.79353 20.6905 8.20917 20.5849L8.05886 16.0317H11.9365Z" fill="#303745"/>
<path d="M17.0673 2.93763C15.179 1.04332 12.6683 0 9.99804 0C7.32778 0 4.81662 1.04332 2.92829 2.93763C1.03997 4.83194 -4.95911e-05 7.35039 -4.95911e-05 10.0293C-4.95911e-05 12.7083 1.03997 15.2272 2.92829 17.1215C4.81662 19.0158 7.32756 20.0589 9.99804 20.0589C12.6685 20.0589 15.179 19.0158 17.0673 17.1215C18.9557 15.2272 19.9959 12.7083 19.9959 10.0293C19.9959 7.35039 18.9557 4.83194 17.0673 2.93763ZM10.1279 2.98097C10.1279 3.22001 9.94088 3.41594 9.70282 3.42881C6.49703 3.60036 3.8018 5.70189 2.75098 8.59595C2.62902 8.93139 2.28363 9.12957 1.93418 9.06186C1.5341 8.98421 1.27781 8.59008 1.36647 8.191C2.22895 4.31208 5.58549 1.37672 9.66006 1.16679C9.91478 1.1537 10.1279 1.35911 10.1279 1.61486V2.98097Z" fill="#81C995"/>
<path d="M19.5614 10.0352C19.5614 12.5963 18.567 15.0039 16.7617 16.8149C14.9567 18.6257 12.5562 19.623 10.0039 19.623C7.45154 19.623 5.05063 18.6259 3.24533 16.8149C1.96612 15.5314 1.09397 13.9482 0.694565 12.2234C1.12007 13.1672 1.71726 14.0353 2.46903 14.7895C4.10804 16.4337 6.28776 17.3393 8.60586 17.3393C10.924 17.3393 13.1032 16.4339 14.7425 14.7895C16.3817 13.145 17.2847 10.9586 17.2847 8.63319C17.2847 6.30774 16.3819 4.12156 14.7425 2.47736C13.9907 1.72297 13.1253 1.12412 12.1845 0.697266C13.9043 1.09793 15.4825 1.97263 16.7617 3.25612C18.5668 5.06691 19.5614 7.47453 19.5614 10.0356V10.0352Z" fill="#81C995"/>
<path d="M9.5964 34.9932C9.35136 34.9932 9.14974 34.7973 9.14344 34.5501L8.99269 28.6866C8.98638 28.4356 9.18395 28.2268 9.43439 28.2202C9.43821 28.2202 9.44226 28.2202 9.44631 28.2202C9.69113 28.2202 9.89274 28.4164 9.89927 28.6633L10.0498 34.5268C10.0563 34.7781 9.85854 34.9869 9.60833 34.9932C9.60428 34.9932 9.60045 34.9932 9.5964 34.9932Z" fill="#303745"/>
</svg>
