<svg viewBox="0 0 164 261" fill="none" xmlns="http://www.w3.org/2000/svg">
<path d="M111.033 248.076C111.033 254.705 97.8261 260.077 81.5335 260.077C65.2408 260.077 52.0334 254.705 52.0334 248.076C52.0334 241.447 65.2408 236.077 81.5335 236.077C97.8261 236.077 111.033 241.45 111.033 248.076Z" fill="#252A33"/>
<path d="M164 82.4047C164 127.915 82 248 82 248C82 248 0 127.915 0 82.4047C0 36.8948 36.7136 0 82 0C127.286 0 164 36.8948 164 82.4047Z" fill="#A9DAB5"/>
<path d="M109.255 106.161C124.307 91.0342 124.307 66.5094 109.255 51.3829C94.2023 36.2564 69.7979 36.2564 54.7457 51.3829C39.6935 66.5094 39.6935 91.0342 54.7457 106.161C69.7979 121.287 94.2023 121.287 109.255 106.161Z" fill="white"/>
<path d="M14.0552 89.6425C14.0552 50.1074 45.947 18.0582 85.2879 18.0582C108.284 18.0582 128.729 29.0122 141.755 46.0059C129.454 24.5482 106.401 10.0993 79.9878 10.0993C40.6431 10.0993 8.75127 42.1485 8.75127 81.6836C8.75127 98.1088 14.2602 113.241 23.5202 125.32C17.4987 114.816 14.0552 102.634 14.0552 89.6425Z" fill="#C5E7CE"/>
<path d="M62.6637 216.481C73.8372 235.295 82 248 82 248C82 248 164 127.915 164 82.4047C164 80.0162 163.875 77.6545 163.677 75.3195C160.443 87.9637 155.868 100.272 150.249 112.024C134.728 144.492 111.773 165.294 87.3267 191.635C79.4448 200.125 71.2403 208.522 62.6599 216.485L62.6637 216.481Z" fill="#81C995"/>
</svg>
