<svg width="137" height="43" viewBox="0 0 137 43" fill="none" xmlns="http://www.w3.org/2000/svg">
<g filter="url(#filter0_d_129_443)">
<path d="M121.891 16.944L123.618 15.9469L124.615 17.674L122.888 18.6712L121.891 16.944ZM120.893 15.2169L122.62 14.2198L123.618 15.9469L121.891 16.944L120.893 15.2169ZM119.896 13.4898L121.623 12.4927L122.62 14.2198L120.893 15.2169L119.896 13.4898ZM118.899 11.7627L120.626 10.7655L121.623 12.4927L119.896 13.4898L118.899 11.7627ZM124.615 17.674L126.342 16.6769L127.339 18.404L125.612 19.4011L124.615 17.674ZM126.342 16.6769L128.069 15.6797L129.066 17.4068L127.339 18.404L126.342 16.6769ZM127.072 13.9526L128.799 12.9554L129.796 14.6826L128.069 15.6797L127.072 13.9526ZM126.075 12.2255L127.802 11.2283L128.799 12.9554L127.072 13.9526L126.075 12.2255ZM125.078 10.4984L126.805 9.50121L127.802 11.2283L126.075 12.2255L125.078 10.4984ZM124.08 8.77125L125.808 7.7741L126.805 9.50121L125.078 10.4984L124.08 8.77125ZM119.629 9.03843L121.356 8.04128L122.353 9.7684L120.626 10.7655L119.629 9.03843ZM121.356 8.04128L123.083 7.04413L124.08 8.77125L122.353 9.7684L121.356 8.04128Z" fill="#FFEF3D"/>
<path d="M109.263 15.0231L110.99 14.026L111.987 15.7531L110.26 16.7503L109.263 15.0231ZM110.26 16.7503L111.987 15.7531L112.984 17.4802L111.257 18.4774L110.26 16.7503ZM111.257 18.4774L112.984 17.4802L113.981 19.2073L112.254 20.2045L111.257 18.4774ZM112.254 20.2045L113.981 19.2073L114.979 20.9345L113.251 21.9316L112.254 20.2045ZM117.703 21.6644L119.43 20.6673L120.427 22.3944L118.7 23.3915L117.703 21.6644ZM110.723 9.5746L112.45 8.57745L113.447 10.3046L111.72 11.3017L110.723 9.5746ZM113.251 21.9316L114.979 20.9345L115.976 22.6616L114.249 23.6587L113.251 21.9316ZM115.976 22.6616L117.703 21.6644L118.7 23.3915L116.973 24.3887L115.976 22.6616ZM118.433 18.9402L120.16 17.943L121.157 19.6701L119.43 20.6673L118.433 18.9402ZM117.436 17.213L119.163 16.2159L120.16 17.943L118.433 18.9402L117.436 17.213ZM113.714 14.756L115.441 13.7588L116.439 15.4859L114.711 16.4831L113.714 14.756ZM111.987 15.7531L113.714 14.756L114.711 16.4831L112.984 17.4802L111.987 15.7531ZM108.266 13.296L109.993 12.2989L110.99 14.026L109.263 15.0231L108.266 13.296ZM108.996 10.5718L110.723 9.5746L111.72 11.3017L109.993 12.2989L108.996 10.5718ZM113.447 10.3046L115.174 9.30742L116.171 11.0345L114.444 12.0317L113.447 10.3046ZM116.439 15.4859L118.166 14.4888L119.163 16.2159L117.436 17.213L116.439 15.4859Z" fill="#FFEF3D"/>
<path d="M102.351 19.0138L104.078 18.0167L105.075 19.7438L103.348 20.741L102.351 19.0138ZM109.331 31.1036L111.058 30.1065L112.055 31.8336L110.328 32.8308L109.331 31.1036ZM110.791 25.6551L112.518 24.658L113.515 26.3851L111.788 27.3822L110.791 25.6551ZM104.078 18.0167L105.805 17.0195L106.803 18.7466L105.075 19.7438L104.078 18.0167ZM106.803 18.7466L108.53 17.7495L109.527 19.4766L107.8 20.4738L106.803 18.7466ZM101.621 21.7381L103.348 20.741L104.345 22.4681L102.618 23.4652L101.621 21.7381ZM106.607 30.3737L108.334 29.3765L109.331 31.1036L107.604 32.1008L106.607 30.3737ZM109.794 23.928L111.521 22.9308L112.518 24.658L110.791 25.6551L109.794 23.928ZM107.8 20.4738L109.527 19.4766L110.524 21.2037L108.797 22.2009L107.8 20.4738ZM107.07 23.198L108.797 22.2009L109.794 23.928L108.067 24.9251L107.07 23.198ZM105.343 24.1952L107.07 23.198L108.067 24.9251L106.34 25.9223L105.343 24.1952ZM111.788 27.3822L113.515 26.3851L114.513 28.1122L112.785 29.1093L111.788 27.3822ZM111.058 30.1065L112.785 29.1093L113.783 30.8365L112.055 31.8336L111.058 30.1065Z" fill="#FFEF3D"/>
<path d="M86.3629 12.068V8.36688H102.3V12.068H96.5823V27.2221H92.0895V12.068H86.3629Z" fill="#FDFDFD"/>
<path d="M70.9786 27.2221V8.36688H84.1257V12.068H75.5359V15.9347H83.4536V19.645H75.5359V23.521H84.1257V27.2221H70.9786Z" fill="#FDFDFD"/>
<path d="M68.1131 8.36688V27.2221H64.2463L56.7428 16.3398H56.6232V27.2221H52.0659V8.36688H55.9879L63.4085 19.2307H63.565V8.36688H68.1131Z" fill="#FDFDFD"/>
<path d="M44.6614 8.36688H49.2095V20.5289C49.2095 21.9344 48.875 23.1589 48.206 24.2023C47.537 25.2396 46.604 26.0436 45.4072 26.6145C44.2103 27.1791 42.8201 27.4615 41.2365 27.4615C39.6346 27.4615 38.2352 27.1791 37.0383 26.6145C35.8414 26.0436 34.9116 25.2396 34.2487 24.2023C33.5858 23.1589 33.2544 21.9344 33.2544 20.5289V8.36688H37.8117V20.133C37.8117 20.7836 37.9528 21.3636 38.2352 21.873C38.5237 22.3825 38.9257 22.7814 39.4412 23.0699C39.9568 23.3584 40.5553 23.5026 41.2365 23.5026C41.9178 23.5026 42.5132 23.3584 43.0226 23.0699C43.5382 22.7814 43.9402 22.3825 44.2287 21.873C44.5172 21.3636 44.6614 20.7836 44.6614 20.133V8.36688Z" fill="#FDFDFD"/>
<path d="M25.627 19.2144L19.2457 12.8332L27.9623 10.4971L25.627 19.2144Z" fill="#FDFDFD" stroke="#FDFDFD" stroke-width="2.9847"/>
<path d="M16.4222 15.2136L13.8186 24.9304L23.5354 22.3273L16.4222 15.2136Z" stroke="#FFEF3D" stroke-width="2.38776"/>
<path d="M21.5 0C25.0977 1.55883e-07 28.4418 1.0857 31.2227 2.94727V6.19922C28.6124 3.95146 25.2149 2.59277 21.5 2.59277C13.2669 2.59277 6.59277 9.26687 6.59277 17.5C6.59277 25.7331 13.2669 32.4072 21.5 32.4072C25.2151 32.4072 28.6124 31.0478 31.2227 28.7998V32.0518C28.4417 33.9135 25.0979 35 21.5 35C11.835 35 4 27.165 4 17.5C4 7.83502 11.835 0 21.5 0Z" fill="#FDFDFD"/>
</g>
<defs>
<filter id="filter0_d_129_443" x="0" y="0" width="137" height="43" filterUnits="userSpaceOnUse" color-interpolation-filters="sRGB">
<feFlood flood-opacity="0" result="BackgroundImageFix"/>
<feColorMatrix in="SourceAlpha" type="matrix" values="0 0 0 0 0 0 0 0 0 0 0 0 0 0 0 0 0 0 127 0" result="hardAlpha"/>
<feOffset dy="4"/>
<feGaussianBlur stdDeviation="2"/>
<feComposite in2="hardAlpha" operator="out"/>
<feColorMatrix type="matrix" values="0 0 0 0 0 0 0 0 0 0 0 0 0 0 0 0 0 0 0.25 0"/>
<feBlend mode="normal" in2="BackgroundImageFix" result="effect1_dropShadow_129_443"/>
<feBlend mode="normal" in="SourceGraphic" in2="effect1_dropShadow_129_443" result="shape"/>
</filter>
</defs>
</svg>
