<svg viewBox="0 0 20 20" xmlns="http://www.w3.org/2000/svg">
<path fill-rule="evenodd" clip-rule="evenodd" d="M3.87508 14C3.93329 13.9224 4.00879 13.8594 4.09557 13.816C4.18236 13.7726 4.27806 13.75 4.37509 13.75H7.50015C7.66591 13.75 7.82488 13.8158 7.9421 13.9331C8.05931 14.0503 8.12516 14.2092 8.12516 14.375C8.12516 14.5408 8.05931 14.6998 7.9421 14.817C7.82488 14.9342 7.66591 15 7.50015 15H4.68759L1.87504 18.7501H18.1254L15.3128 15H12.5002C12.3345 15 12.1755 14.9342 12.0583 14.817C11.9411 14.6998 11.8752 14.5408 11.8752 14.375C11.8752 14.2092 11.9411 14.0503 12.0583 13.9331C12.1755 13.8158 12.3345 13.75 12.5002 13.75H15.6253C15.7223 13.75 15.818 13.7726 15.9048 13.816C15.9916 13.8594 16.0671 13.9224 16.1253 14L19.8754 19.0001C19.945 19.093 19.9874 19.2034 19.9979 19.319C20.0083 19.4346 19.9863 19.5508 19.9344 19.6546C19.8825 19.7584 19.8027 19.8458 19.704 19.9068C19.6052 19.9678 19.4915 20.0001 19.3754 20.0001H0.625013C0.50894 20.0001 0.395161 19.9678 0.296424 19.9068C0.197687 19.8458 0.117894 19.7584 0.0659846 19.6546C0.0140755 19.5508 -0.00789816 19.4346 0.00252577 19.319C0.0129497 19.2034 0.0553594 19.093 0.125003 19.0001L3.87508 14Z" fill="#FFEF3D"/>
<path fill-rule="evenodd" clip-rule="evenodd" d="M5.00012 4.99963C5.00021 4.0374 5.27795 3.09562 5.80001 2.28732C6.32206 1.47902 7.06626 0.838518 7.94331 0.442679C8.82036 0.0468395 9.79299 -0.0875247 10.7445 0.0557086C11.696 0.198942 12.586 0.613688 13.3076 1.25018C14.0293 1.88667 14.552 2.71788 14.8129 3.64405C15.0739 4.57022 15.0621 5.55203 14.7789 6.47165C14.4957 7.39127 13.9532 8.20964 13.2164 8.82857C12.4796 9.44751 11.5799 9.8407 10.6252 9.96098V16.8749C10.6252 17.0406 10.5594 17.1996 10.4422 17.3168C10.325 17.434 10.166 17.4999 10.0002 17.4999C9.83446 17.4999 9.67548 17.434 9.55827 17.3168C9.44106 17.1996 9.37521 17.0406 9.37521 16.8749V9.96223C8.16639 9.80993 7.05477 9.22151 6.24917 8.30749C5.44356 7.39347 4.9994 6.21801 5.00012 4.99963Z" fill="#FFEF3D"/>
</svg>
