<svg viewBox="0 0 32 36" xmlns="http://www.w3.org/2000/svg">
<path d="M30 6C30 3.79086 28.2091 2 26 2C23.7909 2 22 3.79086 22 6C22 8.20914 23.7909 10 26 10C28.2091 10 30 8.20914 30 6ZM2 29.333C2 31.5421 3.79086 33.333 6 33.333C8.20914 33.333 10 31.5421 10 29.333C9.99982 27.124 8.20903 25.333 6 25.333C3.79097 25.333 2.00018 27.124 2 29.333ZM32 6C32 9.31371 29.3137 12 26 12C23.0271 12 20.5612 9.83755 20.085 7H6.83301C5.55125 7.00009 4.32236 7.50967 3.41602 8.41602C2.50967 9.32236 2.00009 10.5512 2 11.833C2 13.1149 2.50959 14.3446 3.41602 15.251C4.32235 16.1572 5.55132 16.6669 6.83301 16.667H25.167C26.9792 16.6671 28.7176 17.3865 29.999 18.668C31.2804 19.9495 32 21.6878 32 23.5C32 25.3122 31.2804 27.0505 29.999 28.332C28.7176 29.6135 26.9792 30.3329 25.167 30.333H11.915C11.439 33.1707 8.97299 35.333 6 35.333C2.68629 35.333 0 32.6467 0 29.333C0.000175555 26.0194 2.6864 23.333 6 23.333C8.97277 23.333 11.4387 25.4956 11.915 28.333H25.167C26.4486 28.3329 27.6777 27.8241 28.584 26.918C29.4904 26.0115 30 24.7819 30 23.5C30 22.2181 29.4904 20.9885 28.584 20.082C27.6777 19.1759 26.4486 18.6671 25.167 18.667H6.83301C5.02081 18.6669 3.2824 17.9465 2.00098 16.665C0.719682 15.3836 0 13.6452 0 11.833C8.61346e-05 10.0208 0.719555 8.2824 2.00098 7.00098C3.2824 5.71955 5.02081 5.00009 6.83301 5H20.085C20.5612 2.16245 23.0271 0 26 0C29.3137 3.22139e-07 32 2.68629 32 6Z" fill="black"/>
</svg>
