<svg viewBox="0 0 20 21" xmlns="http://www.w3.org/2000/svg">
<path d="M17.5 21C18.163 21 18.7989 20.7234 19.2678 20.2312C19.7366 19.7389 20 19.0712 20 18.375V2.625C20 1.92881 19.7366 1.26113 19.2678 0.768845C18.7989 0.276562 18.163 0 17.5 0L2.5 0C1.83696 0 1.20107 0.276562 0.732233 0.768845C0.263392 1.26113 0 1.92881 0 2.625L0 18.375C0 19.0712 0.263392 19.7389 0.732233 20.2312C1.20107 20.7234 1.83696 21 2.5 21H17.5ZM7.38 6.82106L12.5 12.1971V8.56406C12.5 8.39001 12.5658 8.22309 12.6831 8.10002C12.8003 7.97695 12.9592 7.90781 13.125 7.90781C13.2908 7.90781 13.4497 7.97695 13.5669 8.10002C13.6842 8.22309 13.75 8.39001 13.75 8.56406V13.7812C13.75 13.9553 13.6842 14.1222 13.5669 14.2453C13.4497 14.3684 13.2908 14.4375 13.125 14.4375H8.15625C7.99049 14.4375 7.83152 14.3684 7.71431 14.2453C7.5971 14.1222 7.53125 13.9553 7.53125 13.7812C7.53125 13.6072 7.5971 13.4403 7.71431 13.3172C7.83152 13.1941 7.99049 13.125 8.15625 13.125H11.6163L6.49625 7.749C6.3824 7.62523 6.3194 7.45946 6.32083 7.28739C6.32225 7.11533 6.38798 6.95073 6.50386 6.82906C6.61974 6.70738 6.7765 6.63837 6.94037 6.63687C7.10425 6.63538 7.26212 6.70152 7.38 6.82106Z" fill="#FFEF3D"/>
</svg>
