<?xml version="1.0" encoding="utf-8"?>

<!-- Uploaded to: SVG Repo, www.svgrepo.com, Generator: SVG Repo Mixer Tools -->
<svg version="1.1" id="Icons" xmlns="http://www.w3.org/2000/svg" xmlns:xlink="http://www.w3.org/1999/xlink" 
	 viewBox="0 0 32 32" xml:space="preserve">
<style type="text/css">
	.st0{fill:none;stroke:#000000;stroke-width:2;stroke-linecap:round;stroke-linejoin:round;stroke-miterlimit:10;}
</style>
<rect x="15" y="18" class="st0" width="16" height="13"/>
<polyline class="st0" points="15,31 21,23 24,27 26,25 31,31 "/>
<path class="st0" d="M15,30C7.3,30,1,23.7,1,16S7.3,2,15,2s14,6.3,14,14c0,0.7,0,1.3-0.1,2"/>
<path class="st0" d="M15,30c-3.3,0-6-6.3-6-14s2.7-14,6-14s6,6.3,6,14c0,0.7,0,1.3-0.1,2"/>
<path class="st0" d="M15,22c-7.7,0-14-2.7-14-6s6.3-6,14-6s14,2.7,14,6c0,0.7-0.3,1.4-0.8,2"/>
</svg>