<svg viewBox="0 0 4 25" fill="none" xmlns="http://www.w3.org/2000/svg">
<path d="M3.00024 6.5C3.00024 7.05228 2.55253 7.5 2.00024 7.5C1.44796 7.5 1.00024 7.05228 1.00024 6.5C1.00024 5.94772 1.44796 5.5 2.00024 5.5C2.55253 5.5 3.00024 5.94772 3.00024 6.5Z" stroke="white" stroke-width="5"/>
<path d="M3.00024 12.5C3.00024 13.0523 2.55253 13.5 2.00024 13.5C1.44796 13.5 1.00024 13.0523 1.00024 12.5C1.00024 11.9477 1.44796 11.5 2.00024 11.5C2.55253 11.5 3.00024 11.9477 3.00024 12.5Z" stroke="white" stroke-width="5"/>
<path d="M3.00024 18.5C3.00024 19.0523 2.55253 19.5 2.00024 19.5C1.44796 19.5 1.00024 19.0523 1.00024 18.5C1.00024 17.9477 1.44796 17.5 2.00024 17.5C2.55253 17.5 3.00024 17.9477 3.00024 18.5Z" stroke="white" stroke-width="5"/>
</svg>
