<svg viewBox="0 0 9 10" fill="none" xmlns="http://www.w3.org/2000/svg">
<path d="M2.76923 3.66667C2.86104 3.66667 2.94908 3.70179 3.014 3.7643C3.07891 3.82681 3.11538 3.91159 3.11538 4V8C3.11538 8.08841 3.07891 8.17319 3.014 8.2357C2.94908 8.29821 2.86104 8.33333 2.76923 8.33333C2.67742 8.33333 2.58938 8.29821 2.52446 8.2357C2.45955 8.17319 2.42308 8.08841 2.42308 8V4C2.42308 3.91159 2.45955 3.82681 2.52446 3.7643C2.58938 3.70179 2.67742 3.66667 2.76923 3.66667ZM4.5 3.66667C4.59181 3.66667 4.67985 3.70179 4.74477 3.7643C4.80968 3.82681 4.84615 3.91159 4.84615 4V8C4.84615 8.08841 4.80968 8.17319 4.74477 8.2357C4.67985 8.29821 4.59181 8.33333 4.5 8.33333C4.40819 8.33333 4.32015 8.29821 4.25523 8.2357C4.19032 8.17319 4.15385 8.08841 4.15385 8V4C4.15385 3.91159 4.19032 3.82681 4.25523 3.7643C4.32015 3.70179 4.40819 3.66667 4.5 3.66667ZM6.57692 4C6.57692 3.91159 6.54045 3.82681 6.47554 3.7643C6.41062 3.70179 6.32257 3.66667 6.23077 3.66667C6.13896 3.66667 6.05092 3.70179 5.986 3.7643C5.92108 3.82681 5.88462 3.91159 5.88462 4V8C5.88462 8.08841 5.92108 8.17319 5.986 8.2357C6.05092 8.29821 6.13896 8.33333 6.23077 8.33333C6.32257 8.33333 6.41062 8.29821 6.47554 8.2357C6.54045 8.17319 6.57692 8.08841 6.57692 8V4Z" fill="white"/>
<path d="M9 2C9 2.17681 8.92706 2.34638 8.79723 2.4714C8.66739 2.59643 8.4913 2.66667 8.30769 2.66667H7.96154V8.66667C7.96154 9.02029 7.81566 9.35943 7.55599 9.60948C7.29633 9.85952 6.94415 10 6.57692 10H2.42308C2.05585 10 1.70367 9.85952 1.44401 9.60948C1.18434 9.35943 1.03846 9.02029 1.03846 8.66667V2.66667H0.692308C0.508696 2.66667 0.332605 2.59643 0.202772 2.4714C0.0729393 2.34638 0 2.17681 0 2V1.33333C0 1.15652 0.0729393 0.986953 0.202772 0.861929C0.332605 0.736905 0.508696 0.666667 0.692308 0.666667H3.11538C3.11538 0.489856 3.18832 0.320286 3.31816 0.195262C3.44799 0.0702379 3.62408 0 3.80769 0H5.19231C5.37592 0 5.55201 0.0702379 5.68184 0.195262C5.81168 0.320286 5.88462 0.489856 5.88462 0.666667H8.30769C8.4913 0.666667 8.66739 0.736905 8.79723 0.861929C8.92706 0.986953 9 1.15652 9 1.33333V2ZM1.81246 2.66667L1.73077 2.706V8.66667C1.73077 8.84348 1.80371 9.01305 1.93354 9.13807C2.06337 9.2631 2.23947 9.33333 2.42308 9.33333H6.57692C6.76053 9.33333 6.93663 9.2631 7.06646 9.13807C7.19629 9.01305 7.26923 8.84348 7.26923 8.66667V2.706L7.18754 2.66667H1.81246ZM0.692308 2H8.30769V1.33333H0.692308V2Z" fill="white"/>
</svg>
